# xmcd
#
# Track frame offsets: 
#        150
#        35133
#        60692
#        78329
#        100720
#        121067
#        140680
#        159689
#        177571
#        199968
#        218297
#        252493
#        267193
#        297496
#        324116
#
# Disc length: 4728 seconds
#
# Revision: 1
# Processed by: cddbd v1.5.2PL0 Copyright (c) Steve Scherf et al.
# Submitted via: ExactAudioCopy v0.95a5
#
DISCID=dd12760f
DTITLE=Various Artist - Beginner's Guide to Greece CD 1
DYEAR=2007
DGENRE=World
TTITLE0=Papadakis, Pavlos and Pavlos - Anogianes Kontylies
TTITLE1=Aerakis, Nikiforos - O panagia mou anogiani
TTITLE2=Vasilis Stavrakakis - Trechoun ta nera
TTITLE3=Dimitris Kounalis - Ginou ston Kambo Lemonia
TTITLE4=Vasilis Skoulas - Cheretismou, Madares Mou Chaniotikes
TTITLE5=Garganourakis, Charalambos - Astra mi me malonete
TTITLE6=Palena Saferia Band - Koutouliano Nero
TTITLE7=Dimitris Sgouros - Tou lasitihiou to dromo
TTITLE8=Psarantonis - Sose me giatre mou (tourka ise gia romia)
TTITLE9=Stelios Petrakis - Fotia
TTITLE10=Skordalos, Thanasis - Mono Ekeinos P'agapa
TTITLE11=Foustalieris, Stelios - Ponemeni Kardia
TTITLE12=Mountakis, Kostas - Chaniotiko Mou Giasemi
TTITLE13=Papadakis, Pavlos and Pavlos - Kriti mou ormofo nisi
TTITLE14=Yiorgos Manrodimitris - Kali kardia
EXTD=
EXTT0=
EXTT1=
EXTT2=
EXTT3=
EXTT4=
EXTT5=
EXTT6=
EXTT7=
EXTT8=
EXTT9=
EXTT10=
EXTT11=
EXTT12=
EXTT13=
EXTT14=
PLAYORDER=
